<?xml version="1.0" encoding="UTF-8"?>
<svg version="1.1" viewBox="0 0 2048 1422" width="969" height="673" xmlns="http://www.w3.org/2000/svg">
<path transform="translate(0)" d="m0 0h2048v1422h-2048z" fill="#202022"/>
<path transform="translate(737,247)" d="m0 0h20l88 8 60 6 14 3 9 6 6 8 3 9 1 281v115l6-1h130l-7-26-3-19v-4h-39l-39-1-12-1-8-6-6-8-2-6v-46l1-77 3-139 1-24 5-10 5-4 8-2 106-7 105-8 269-24 20-1 8 2 9 6 6 7 1 2v333l-2 10-7 8-7 3-28 1h-113l-26-1-1 10-7 22-6 17 8 1 103 4 45 2 119 7 9 2 7 6 3 6v10l-6 8-8 5-4 1h-38l-188-3h-310l-291 1-204 3-89 3h-57l-6-4-4-5-1-2v-8l5-10 7-6 10-2 54-4 69-4h14v-388l1-22 6-10 8-7 8-3 25-4 112-16z" fill="#5587E8"/>
<path transform="translate(1400,349)" d="m0 0 14 1 12 2 9 4 8 6 3 6 1 5v180l-4 5-10 3-38 3-53 2h-91l-53-2-50-4-31-3-20-4-13-5-11-7-7-7-8-11-6-12-3-13v-18l3-15 6-15 9-16 9-11 9-9 14-9 16-7 20-6 29-6 31-4 39-3h54l35 2 38 4 27 5 6 2 1 4-2 2h-11l-54-4-19-1h-15l35 7 30 8 20 8 13 7 12 11 7 9 5 11 5 18 4 25 1-1v-38l-2-37-4-31-4-17-6-12-5-5-5-4z" fill="#3BB1E4"/>
<path transform="translate(727,292)" d="m0 0h7l1 2v398l-9 1-136 6h-7l-1-4v-380l2-8 3-2 76-7z" fill="#3BB0E4"/>
<path transform="translate(762,282)" d="m0 0 41 3 98 8 9 1 1 28v359l-1 4-2 1-145 5-2-1v-407z" fill="#202022"/>
<path transform="translate(1428,315)" d="m0 0h16l10 4 8 8 3 6v242l-3 9-7 8-6 4-11 2h-206l-77-2-81-3-48-2-12-2-6-4-6-7-1-3v-201l4-10 7-8 6-3 19-3 73-7 67-6 61-6 81-7zm-28 34 1 4 7 5 6 10 4 12 4 23 3 32 1 23v38l-1 1-4-25-6-21-6-11-9-10-8-7-17-9-19-7-36-9-26-5h15l47 3 26 2h11l2-4-3-3-25-5-32-4-26-2-21-1h-54l-39 3-37 5-27 6-24 8-15 8-10 8-9 9-9 13-8 15-5 15-2 11v18l3 13 7 14 11 13 10 8 11 5 15 4 11 2 66 6 41 2 27 1h91l53-2 38-3 10-3 4-5v-180l-3-9-4-5-11-6-7-2-15-2z" fill="#202022"/>
<path transform="translate(1478,269)" d="m0 0 9 1 10 6 7 8 1 2v247l-1 43-2 1-2 3h-3l-7 1-6 3h-3v-2h-10l-1-1-1 3h-2l-2 6-8 6-9 4-8 1-4 1h-204l-47-1h-10l-16-1-3-1h-22l-3 1 1 5h2v3h2l7 9 2 10h-2l-4-10-5-7-7-4-8-1-12 6 4-6 3-4v-2l-33-2-11-1-37-2-10 1-9-2-14-9-5-4v2l-5 1-9 1-10-2v-2h-2l-1-5-4 1-1 9-1 8v18l4 10 2 4 6 2 4 2 6 1v1h-10l-8-6-6-8-2-6v-46l1-77 3-139 1-24 5-10 5-4 8-2 106-7 105-8 269-24zm-50 46-109 9-113 10-73 7-77 7-34 4-8 3-8 7-4 8-1 4v201l3 6 8 7 6 2 8 1 69 3 92 3 45 1h206l11-2 6-4 7-8 3-9v-242l-5-8-8-7-8-3z" fill="#22D5DE"/>
<path transform="translate(727,292)" d="m0 0h7l1 2v398l-9 1-136 6h-7l-1-4v-380l2-8 3-2 76-7zm-53 36-31 3-13 3-8 5-5 6-3 7-2 18-3 36-2 47v70l3 57 4 51 3 17 4 8 7 6 6 2h26l28-2 11-2 6-4 7-8 3-8v-274l-1-24-4-6-9-6-6-2z" fill="#202022"/>
<path transform="translate(737,247)" d="m0 0h20l88 8 60 6 14 3 9 6 6 8 3 9v103l-1 68h-1l-1-31-2-13v-6h-2l-1-4-5 2-3 5-4-3-2-4-1 6h-2l-1 3-1-91v-28l-22-1-122-10h-4l-1 4-1 146h-4l-1-14-4-8-2-1-1 6-1 2-5 1h-2l-1 9-2 6h-1l-1-82-1-60-40 4-72 7-35 3-3 3-1 6-2 110-3 1-1-2-1-15-6 1-1-3-4-1-3-6-2 13-1 18-2 60h-1v-201l6-10 8-7 8-3 25-4 112-16z" fill="#19E3DF"/>
<path transform="translate(1465,337)" d="m0 0h1l1 93 1-8 2-14 2 1 1 7 4-1 2-6h7l5-6 7-1 3 10 1 7 1 43 1-26h1v97l-1 43-2 1-2 3h-3l-7 1-6 3h-3v-2h-10l-1-1-1 3h-2l-2 6-8 6-9 4-8 1-4 1h-204l-47-1h-10l-16-1-3-1h-22l-3 1 1 5h2v3h2l7 9 2 10h-2l-4-10-5-7-7-4-8-1-12 6 4-6 3-4v-2l-33-2-11-1-37-2-10 1-9-2-14-9-5-4v2l-5 1-9 1-10-2v-2h-2l-1-5-4 1-1 9-1 8v18l4 10 2 4 6 2 4 2 6 1v1h-10l-8-6-6-8-2-6v-46l1-77 1-47 2-4 2-26 2-13 2-2 4 8 5-4 6 1 7-1 2 2 2-1 2 6 2 10 1-1 1-38h1l1 197 3 6 7 6 6 2 8 1 69 3 92 3 45 1h206l11-2 6-4 6-7 3-9z" fill="#3BB1E4"/>
<path transform="translate(665,342)" d="m0 0h15l-4 5-12 6-6 7-5 10-5 25-3 30-2 30-1 64h-3l-2-15-3-46-1-52-1-13-3 24-1 11-1 28v33l2 57 2 37 1-11 2-8 2-6 1 3 7 1h11l2-1 2 1 1-2 18 1 2 1h15l10-2 5 9 3 13v60l-2 7-7 8-8 4-17 2-19 1h-26l-9-4-6-7-3-9-3-24-4-55-2-42v-70h1l1 24 1-28 1 2 4 1 2-8 3-62 2-22 3-8 6-5 10-3z" fill="#5587E8"/>
<path transform="translate(893,834)" d="m0 0h10l8 5 8 10 11 16 26 36 12 17 13 18 8 11 2 1v-102l3-6 5-5 3-1h9l6 4 4 5v150l-4 6-5 4-8 3-8-1-8-6-12-16-13-19-12-16-12-17-13-18-8-12-8-10-1 102-3 7-5 4-5 2h-6l-9-6-2-4v-150l6-8z" fill="#19E3DF"/>
<path transform="translate(776,834)" d="m0 0h8l8 3 6 7 8 18 22 52 19 45 11 27 1 3v7l-4 6-5 4h-12l-6-4-11-23-1-3-6-2h-66l-7 3-11 23-7 6-9 1-6-3-5-6-1-9 5-14 16-37 15-36 24-56 4-6 5-4z" fill="#19E3DF"/>
<path transform="translate(1485,834)" d="m0 0h9l6 4 4 5 1 12 1 46 5 3h68l5-2 2-4 1-53 4-7 6-4h9l6 3 4 5 1 2v152l-6 7-6 3-9-1-8-7-1-3-1-55-4-4-3-1h-66l-6 3-1 1-1 51-2 8-5 5-6 3h-6l-8-5-3-4-1-5v-147l4-7z" fill="#1AE2DF"/>
<path transform="translate(1202,835)" d="m0 0h90l8 4 4 7v8l-5 8-6 3-69 1-4 3v31l2 3 4 1h47l8 3 5 6 2 8-3 8-6 5-52 1-6 3-1 1v31l3 3 69 1 6 3 5 6 1 2v9l-4 6-4 3-3 1h-92l-6-4-5-6-2-9v-134l3-7 4-5z" fill="#1AE2DF"/>
<path transform="translate(1478,269)" d="m0 0 9 1 10 6 7 8 1 2v150l-1 53h-1l-2-70-2-11-1-6-8 3-4 5h-7l-2 5h-3l-1 2-1-1-1-7-2 17-1 4-1 23h-1l-1-116-4-10-7-7-10-4h-54v-3l-7-1 1-4-10-1-1-2h12l-40-2h-38l-1 2v-2h-16l-1 2-4-1v-1l-9-3 2-5 3-3-15 1-6 1-2-3 3-2 12-1h10v-2l178-16z" fill="#19E3DF"/>
<path transform="translate(1392,834)" d="m0 0h18l14 3 13 5 12 7 4 5 1 3v8l-4 6-6 4h-11l-16-8-10-2h-12l-13 2-12 5-9 7-8 10-6 13-2 11v13l4 16 5 10 9 10 10 7 10 4 12 2h9l15-3 16-8h9l6 4 4 7v8l-4 6-10 7-15 6-13 3-7 1h-10l-18-3-13-5-14-8-11-9-8-9-8-13-6-15-3-14v-21l4-17 6-14 7-10 9-10 9-8 14-8 12-5z" fill="#1AE2DF"/>
<path transform="translate(1234,379)" d="m0 0h54l35 2 38 4 27 5 6 2 1 4-2 2h-11l-54-4-19-1h-15l35 7 30 8 20 8-3 3h-7l-4-1-9-1-8-1-5 2-9 1-4 2-41 1-5 1-1 2-13-1-7-1h-7l-5-2-1 2-15-1-5 1-11-1h-84l-18-2-4-3-7-4v-2l-11 3v2l-8 4-7 5h-2l-2 4-7 8-4 6-1-4 10-14 11-11 14-9 16-7 20-6 29-6 31-4z" fill="#29CBE2"/>
<path transform="translate(1119,604)" d="m0 0 8 1 8 5 6 9 5 15v2h44l71 1 22 1-2 6-8 16-12 28-120-3-28-1-3-7-7-27-2-14 1-13 4-9 6-7z" fill="#202022"/>
<path transform="translate(674,328)" d="m0 0h21l10 4 5 4 4 6v174h-1l-1-50-2-25-3-10-4-5h-3l-3-1v2h-2v2l-14 1-13 2-12 3-4-1-1-4-2 5-3 8-2 4v-22l3-30 5-25 6-12 8-7 11-6 2-2h-14l-24 2-10 3-6 5-2 7-3 39-2 45-2 9-5-2-2 53h-1v-76l2-36 3-35 3-10 4-6 6-5 11-4 25-3z" fill="#1AE1DF"/>
<path transform="translate(962,702)" d="m0 0h105l148 2 91 3 90 5 15 1v3h-149l-58-1-123-1h-163l-95 1-175 4-28 1-60 1h-31l-1-3 2-1 23-2 101-5 84-3 108-3z" fill="#191717"/>
<path transform="translate(588,835)" d="m0 0h105l8 6 3 7-1 7-4 6-6 4-32 1-4 3-1 3-1 124-6 7-6 3-9-1-7-6-2-6-1-123-5-4-31-1-6-3-4-5-1-3v-8l3-5 6-5z" fill="#19E3DF"/>
<path transform="translate(392,835)" d="m0 0h103l8 4 4 6v10l-4 6-4 3-4 1-30 1-5 5-1 124-4 6-8 5h-7l-6-4-5-6-1-125-5-5-32-1-6-4-4-6v-10l4-6z" fill="#19E3DF"/>
<path transform="translate(1053,835)" d="m0 0h104l8 5 3 5v10l-4 6-4 3-3 1-31 1-5 5-1 124-4 6-8 5h-7l-6-4-4-5-1-2-1-124-5-5-32-1-6-4-4-6v-9l4-7z" fill="#19E4DF"/>
<path transform="translate(777,538)" d="m0 0h21l98 6 2 2v49l-2 4-44-2-75-4-1-1-1-50z" fill="#5587E8"/>
<path transform="translate(776,444)" d="m0 0 32 2 85 7 5 1v50l-1 1h-13l-97-5-11-1z" fill="#3BB1E4"/>
<path transform="translate(776,630)" d="m0 0h13l96 5 12 1 1 1v41l-1 2h-120l-1-1z" fill="#5587E8"/>
<path transform="translate(542,833)" d="m0 0 9 3 6 7 1 45v74l-1 34-5 7-7 3h-6l-8-5-3-4-1-3v-149l4-6 6-5z" fill="#1BE1DF"/>
<path transform="translate(910,337)" d="m0 0h1l1 71h2l1-6 2 2 2 5 2 1 3-6h3l3-1v5h2l3 21 1-39h1l1 178v115h20v1h-22l-1-5-1-91-5-5-4 5h-2l-1-4-3-1-1-2-2 1-1 7-3 9h-1l-1-46z" fill="#3CB0E4"/>
<path transform="translate(581,361)" d="m0 0h1v237l-1 5-2-3-2-5-1-7-4-2-1 3-3-1v-4l-3-1v-3l-2-1 1-2-2 1-3 14-1 29-1 76h-1v-206l2-60 1-21 2-11 3 3 1 4 4 1 1 2 2-2h2v2h2l2 17 2-1z" fill="#3BB2E4"/>
<path transform="translate(760,287)" d="m0 0h1v283l-1 41h-1l-4-21v-2l-4 2-6-2-4-2-2 7-2 1v9h-1l-1-39v-212h1l1 77 2-7 1-6 4 2h3l2-8 3 1 4 9 1 13h2z" fill="#3AB2E3"/>
<path transform="translate(665,342)" d="m0 0h15l-4 5-12 6-6 7-5 10-5 25-3 30-2 30-1 64h-3l-2-15-3-46-1-52-1-13-3 24-1 11-1 28v33l2 57 2 37v17l-5-1-5-35-3-37-1-23v-60l3-62 2-22 3-8 6-5 10-3z" fill="#191717"/>
<path transform="translate(1497,277)" d="m0 0 6 5 2 4v150l-1 53h-1l-2-70-2-11-1-6-8 3-4 5h-7l-2 5h-3l-1 2-1-1-1-7-2 17-1 4-1 23h-1l-1-116-4-10-1-2h3l-4-6-2-2 1-3-2-4 4-4 6 1v-3l16 1 8 2 1-2 3 1v2l3 1 3 10 2 11 1-43-6-8z" fill="#20D8DE"/>
<path transform="translate(77,1060)" d="m0 0h27l8 4 4 6 1 3v9l-2 6v2l4 2 5 6 1 3v10l-6 9-6 3h-37l-1-1-1-23v-34l1-4z" fill="#1FDBE0"/>
<path transform="translate(746,243)" d="m0 0 17 1 30 3 28 2h7l16 2 31 4 19 2 8 1 5 1 12 3 10 6 5 6 6 14 2 18v357l1 13 1 2 6 1 7-1 9 2-2 2-26 1-1-6v-131l-1-259-4-11-6-7-10-5-21-3-104-10-34-3h-20l-64 9h-13v-1l8-2 13-2 17-3 15-2 21-2z" fill="#1A1818"/>
<path transform="translate(846,704)" d="m0 0h33l1 2-5 1-1 2h-2v2l2 2-51 2-175 4-28 1-60 1h-31l-1-3 2-1 23-2 101-5 84-3z" fill="#1A1717"/>
<path transform="translate(821,311)" d="m0 0h13l8 4 5 4 6 10 3 11v7l-4 13-8 9-8 4-9 1-11-4-8-7-6-12-1-4v-14l4-9 6-8z" fill="#18E4DF"/>
<path transform="translate(567,275)" d="m0 0 2 1-7 8-4 8v27l4-14 5-4 7 2 3 5v18l1 14 1 2 1-1 1-29 2-2-2 115-3 1-1-2-1-15-6 1-1-3-4-1-3-6-2 13-1 18-2 60h-1v-201l6-10z" fill="#20D8DE"/>
<path transform="translate(777,538)" d="m0 0h21l98 6 2 2v49l-2 4-12-1v-1h11l-1-28-4-5-2-3h-25l-11 2-1-1-7-1h-31l-10-1h-15l-4 1h-3l-1 4-2 9 1 16 3 2h-6l-1-50z" fill="#3CB0E4"/>
<path transform="translate(934,280)" d="m0 0 2 3 1 4v103l-1 68h-1l-1-31-2-13v-6h-2l-1-4-5 2-3 5-4-3-2-4-1 6h-2l-1 3-1-91v-27h1l2 37 2-18 3-7 2-2 5 1 3 5 2 1 2 12 2 9z" fill="#21D7DE"/>
<path transform="translate(744,306)" d="m0 0h5l3 5 3 9 2 11 1-3 1-11h1v116h-4l-1-14-4-8-2-1-1 6-1 2-5 1h-2l-1 9-2 6h-1l-1-82v-33h1l1 18 3-24z" fill="#20D8DE"/>
<path transform="translate(695,329)" d="m0 0 6 1 6 4 5 5 2 3v174h-1l-1-50-2-25-3-10-4-5h-3l-3-1v2h-2v2l-14 1-13 2-12 3-4-1-1-4-2 5-3 8-2 4v-22l1-12h1v6h2l1-6 3-13 5-2h2l2-2 15 1h21 3l4 1 3 5 4 14 1-71-4-8-6-5-7-3z" fill="#28CDE2"/>
<path transform="translate(757,738)" d="m0 0h452l-1 2h-43l-30 1-7-1h-35l-19 1h-22l-50 1h-281l-34 2-85 1-14-1-11 1-8-1-7 1-51 2h-22l-18 1h-24l-10-1 4-2 79-3 33-1 146-2z" fill="#1A1718"/>
<path transform="translate(1400,349)" d="m0 0 14 1 12 2 9 4 8 6 3 6 1 5v96l-1 21h-1l-1-42-2-10-3-2 1 4-5-2-2-3-1-6h-3l-1 31-2-2-2-37-4-31-4-17-6-12-5-5-5-4z" fill="#20D9DE"/>
<path transform="translate(680,356)" d="m0 0 15 2 10 5 3 6 2 11 2-2v39l-2 2-4-16-3-3-1-2-4-1-3 1h-25l-9-1-4 3h-4l-3 13-2 6h-2v-17l3-19 2 2 3-4 4-11 5-4h2l2-4 5-3z" fill="#20D8DE"/>
<path transform="translate(823,1059)" d="m0 0h10l10 2 6 4 6 8 1 3v12l-6 10-5 4h-2l5 9 6 8-1 5h-5l-9-10-5-7-4-2h-11v18l-6 1-2-1-1-6v-53l1-3 2-1z" fill="#21D7E0"/>
<path transform="translate(1179,1060)" d="m0 0h28l9 5 5 7 2 8-1 9-5 8-7 6 4 7 7 10-2 4-4 1-10-12-6-7-2-1h-11l-1 18-1 1-7-1v-60z" fill="#1DDDDF"/>
<path transform="translate(971,310)" d="m0 0h2v2l-5 5-4 8-1 24-3 139-1 77v46l3 8 7 8 5 3 12 1 78 2 5 27 5 18v3h-106v-1l26-1h63l9-2 1-6-1-7-1-9-3-4-3-11-2-2-43-1-25-2-14-2-9-6-6-5-5-8-2-11v-33l1-44v-16l1-52v-66l2-43v-11l2-14 4-7 2-1 5-5z" fill="#191717"/>
<path transform="translate(1497,277)" d="m0 0 6 5 2 4v150l-1 53h-1l-2-70-2-11-1-6-8 3-4 5h-7l-2 5h-3l-1 2-1-1-1-7-2 17-1 4-1 23h-1v-68l2-6 3-13 3-1 3-4h10l2-2 5 1 3 3h2l2 13 2-77v-12l-6-8z" fill="#28CDE1"/>
<path transform="translate(1841,1059)" d="m0 0 5 1 7 21 8 27 3-8 11-36 3-5h6l4 9 11 38v3h2l2-9 11-36 2-5 7 1-1 8-14 47-3 7-2 2h-5l-4-5-13-42-3 7-9 32-3 6-2 2-7-1-3-6-16-54 1-3z" fill="#1EDCE0"/>
<path transform="translate(949,1060)" d="m0 0h27l8 4 6 7 2 5v12l-4 8-7 6-6 2-8 1h-12v18l-5 1-3-1v-61z" fill="#1DDDDF"/>
<path transform="translate(1764,1067)" d="m0 0h11l9 4 6 5 4 9v13l-5 10-6 5-7 3h-12l-8-3-5-4-6-12v-10l3-8 7-8z" fill="#202022"/>
<path transform="translate(641,1067)" d="m0 0h12l12 6 6 10 1 5v7l-3 9-5 7-10 5h-13l-9-4-6-7-3-8v-11l4-9 4-5z" fill="#202022"/>
<path transform="translate(640,258)" d="m0 0h13l-1 2-70 10-10 3-8 6-6 9-1 2-1 22-1 388-14 1h-24v-1l27-2 6-3 2-26v-54l-1-31v-114l-1-92 1-58 1-27 4-10 7-8 8-5h3v-2l16-3 4-1 24-3 4-1 14-1z" fill="#191616"/>
<path transform="translate(727,292)" d="m0 0h7l1 2v398h-20v-1h14l2-15v-44l-1-61v-272l-5-2-28 1-5-1 2-2z" fill="#1A1818"/>
<path transform="translate(971,312)" d="m0 0 2 1-7 13-1 11v39l3-16 2-3 3-1v2l4-2 7 1 2 3 10-3 2 7v29l2-1v24l-3 3-2-12-3-4-2-2-8 1-7-1-1 3-3 1-3-6-1-1-2 13-2 26-1 34h-1v-80l1-42 1-24 5-10z" fill="#28CCE2"/>
<path transform="translate(1037,591)" d="m0 0 37 1 81 3 77 2h212l-1 3-7 2h-204l-47-1h-10l-16-1-3-1h-22l-3 1 1 5h2v3h2l7 9 2 10h-2l-4-10-5-7-7-4-8-1-12 6 4-6 3-4v-2l-33-2-11-1-32-2-2-2z" fill="#3FABE4"/>
<path transform="translate(780,883)" d="m0 0 3 3 17 39 4 10v6l-3 2h-42l-3-5 14-34 8-19z" fill="#212123"/>
<path transform="translate(762,282)" d="m0 0 29 2 6 1v1l-15 1-16-1-2 16 1 26 1 132v25l-1 36v21l1 37-1 21-1 14v45l1 9-1 7v8l4 5 4 2-9 1-2-1v-407z" fill="#191617"/>
<path transform="translate(1649,1060)" d="m0 0h6l7 9 26 39 1-48h7l1 1v60l-4 3-5-1-7-9-7-11-16-24-3-4v47l-5 2-4-2v-60z" fill="#1CDEDF"/>
<path transform="translate(398,1067)" d="m0 0h11l11 4 6 5 4 8v14l-5 10-8 6-7 2h-14l-2-2v-43z" fill="#202022"/>
<path transform="translate(821,288)" d="m0 0h18l62 5 9 1 1 28v294l-1 28h-1l-1-18-1-11-1-14v-65l1-12 2-10h-2v-13l-1-3v-178l1-10-1-9-2-3-3-1-62-5-18-3z" fill="#191616"/>
<path transform="translate(1338,1059)" d="m0 0h11l10 3 6 5-1 5-4 1-11-5h-11l-10 5-5 6-3 8v10l6 12 8 5 3 1h13l9-4 5-6 3-9h-21l-3-2v-5l1-1h30l2 2v9l-4 10-7 8-12 6-4 1h-11l-10-3-9-7-6-9-2-6-1-8 2-10 5-9 4-5 10-6z" fill="#18E7ED"/>
<path transform="translate(642,1059)" d="m0 0h11l11 4 10 9 5 9 1 4v13l-4 10-7 8-5 4-11 4h-11l-10-3-8-6-6-8-3-8-1-11 3-10 8-11 10-6zm-1 8-10 5-6 8-2 6v11l4 9 5 6 9 4h13l10-5 6-9 2-7v-7l-3-9-4-6-12-6z" fill="#19E5EC"/>
<path transform="translate(1764,1059)" d="m0 0h11l11 4 9 7 6 10 2 9-1 11-6 12-8 7-8 4-5 1h-11l-9-3-9-6-6-9-3-8v-14l6-12 7-7 10-5zm0 8-9 4-8 9-2 7v10l6 12 9 6 4 1h12l10-5 5-6 3-7v-13l-5-10-8-6-6-2z" fill="#18E6ED"/>
<path transform="translate(778,403)" d="m0 0 36 2 81 5 3 3v6l-2 3h-15l-102-7-5-5 2-5z" fill="#21D6DE"/>
<path transform="translate(1406,358)" d="m0 0h3l6 10 4 12 4 23 3 32 1 23v38l-1 6h-1l-5-30-6-21-6-11-9-10-10-8-19-9-21-7-29-7-26-5-3-2h18l47 3 2 1 10 1v1l-12 2v4l16 6 12 5 10 6 10 9 5 6 4 4 4 3v2h3l-1-32-2-16-2-13-4-14-5-10z" fill="#1A1717"/>
<path transform="translate(616,448)" d="m0 0h1l1 56 2 38 3 30v4h-2v-5h-2v-2l-4-2-3-2 1 6 2 33 4 39 3 10 5 7-4-2-4-5-3-9-3-24-4-55-2-42v-70h1l1 24 1-28 1 2 4 1z" fill="#3CAFE4"/>
<path transform="translate(388,1060)" d="m0 0h26l10 4 5 4 7 10 2 5 1 11-2 9-6 10-7 6-10 4-10 1h-10l-7-2-1-1v-58zm10 7-4 4v43l2 2h14l9-3 7-6 4-9v-14l-4-8-6-5-11-4z" fill="#17E8EE"/>
<path transform="translate(641,347)" d="m0 0h12l4 3-1 4-9 21-4 24-2 16-1 2-3-1-1-4-1-6h-2l-1-13-3 24-1 11-1-4h-2l-1-9 1-2-2-5v-15l2-25 1-10 3-5z" fill="#202022"/>
<path transform="translate(1417,1060)" d="m0 0h7l1 1v27l34-1v-27h8v63l-5 1-3-1v-27h-34v26l-3 2-6-1v-62z" fill="#1DDDDF"/>
<path transform="translate(567,275)" d="m0 0 2 1-7 8-4 8v59l1 12 2-3h3l7 3 6 12 2 19 2 1v30l-3 1-1-2-1-15-6 1-1-3-4-1-3-6-2 13-1 18-2 60h-1v-201l6-10z" fill="#28CDE2"/>
<path transform="translate(934,280)" d="m0 0 2 3 1 4v103l-1 68h-1l-1-31-2-13v-6h-2l-1-4-5 2-3 5-4-3-2-4-1 6h-2l-1 3v-46h1l1 5h2l1-3 3-4 4-1 2-4 1 2h2v3h2l3 8 1-14z" fill="#28CDE2"/>
<path transform="translate(1467,266)" d="m0 0 10 1 13 2 11 8 4 5 3 7 1 3 1 21-1 172v18l-1 67-1 28h-1l-1-40-1-272-4-6-7-6-6-3-9-1-29 2h-8v-2l12-2z" fill="#1B1819"/>
<path transform="translate(772,831)" d="m0 0h13l7 3 8 9v2l2 1 1 4h2l2 5v3h2l3 12 5 10 6 14 5 10 5 13 5 14 3 8 3 7v3l2 1 4 9 2 3-1 2h2l2 9 3 6 1 7h-2l-11-27-20-47-10-24-12-28-7-16-5-6-8-3h-8l-8 4-4 5-8 18-17 40-18 43-17 40-1 10 3 6v3l-4-5-3-9 1-8 16-38 9-20 8-20 11-25 5-12 9-21 6-8 1-6z" fill="#1A1717"/>
<path transform="translate(720,1060)" d="m0 0h8l1 41 2 7 5 5 4 2h11l7-4 4-9 1-42h7l1 1v43l-3 8-5 6-6 4-8 2h-8l-9-3-6-5-4-6-2-6z" fill="#18E7EC"/>
<path transform="translate(166,1060)" d="m0 0h7l1 2v36l2 9 3 5 6 3h11l7-4 3-5 1-4 1-42h8v44l-3 8-5 6-6 4-7 2h-9l-10-4-7-7-4-10v-42z" fill="#17E8ED"/>
<path transform="translate(1054,517)" d="m0 0 4 4 6 9 9 10 11 7 13 5 20 4 66 6 41 2 27 1h91l53-2 29-2h12l-3 2-9 2-31 2h-7-3l-29 2-37 1h-50l-41-1-7-2-20-1v1h-8l-8-1-5-1h-13l-3-1h-9l-15-2h-3v-2l-4 1-3-1h-8l-16-2-10-4-6-1-11-5-3-3v-2l-4-1-3-3v-2l-2-1-1-4-4-1-6-12z" fill="#1A1718"/>
<path transform="translate(1403,353)" d="m0 0 7 2 6 10 5 15 2 9v5l5 2 2 1v3h2l3 3 1-2 1 3 4 1 2 8 1-2v-40l-5-10 1-2 5 6 2 8v96l-1 21h-1l-1-42-2-10-3-2 1 4-5-2-2-3-1-6h-3l-1 31-2-2-2-37-4-31-4-17-6-12-5-5z" fill="#2BC8E2"/>
<path transform="translate(1233,737)" d="m0 0h125l139 2 89 2-3 2h-79l-8-1h-19l-17 1-86-1-21-1h-107l-16-1v-2z" fill="#1A1717"/>
<path transform="translate(1452,319)" d="m0 0 4 2 7 8 2 4v242l-3 9-5 6h-1l1-7 2-4 1-9 1-154v-82h-2v-4h-2l-2-6h-2z" fill="#191717"/>
<path transform="translate(1060,1059)" d="m0 0h10l10 3 6 4 1 4-2 3-5-1-10-4h-10l-10 4-5 6-3 7v14l5 9 6 5 6 2h12l9-4h6l1 3-5 6-11 4h-12l-11-4-8-7-6-10-2-8v-9l4-10 7-9 7-5z" fill="#19E6ED"/>
<path transform="translate(746,366)" d="m0 0 7 1 3 12 2 15 1-5h1v44h-4l-1-14-4-8-2-1-1 6-1 2-5 1h-2l-1 9-2 6h-1v-43l2-4 2-15 5-5z" fill="#28CDE2"/>
<path transform="translate(898,642)" d="m0 0h1l1 41-6 3-40 2-33 1h-46l2-3-2-8 2 1 120 1z" fill="#191617"/>
<path transform="translate(628,333)" d="m0 0 3 1-9 6-4 5-3 7-2 18-3 36-2 47v70l3 57 3 40v13h-1l-3-26-1-11-2-10v-15l-2-17-1-30-1-10v-54l2-42 1-5 1-18 1-5v-20l1-3v-8l2-11 4-8h2v-2z" fill="#191717"/>
<path transform="translate(531,1059)" d="m0 0 5 1 9 10 9 12h3l9-12 8-10 4-1 3 2-1 5-10 13-9 13-1 5-1 26-6 1-2-2-1-29-9-13-10-13-2-6z" fill="#1FDBDF"/>
<path transform="translate(1508,1060)" d="m0 0h46l1 1v5l-1 1-18 1-1 55-1 1-7-1-1-56h-17l-2-1v-5z" fill="#1CDEDF"/>
<path transform="translate(891,832)" d="m0 0h14l6 4v2l4 2 8 10 11 16 4 5 3 5 6 7v2h2l5 7v2h2l7 12 7 10 9 13 1 3 6 1 1-9v-24l1-7v-24l1-4-1-11 2-9h1l1 18v62l-1 23-4-2-13-18-12-17-13-18-10-14-13-18-11-16-6-7-6-3h-10l-6 1 1-3z" fill="#1A1717"/>
<path transform="translate(700,328)" d="m0 0 8 4 5 4 3 5 1 4 1 25v173l1 18v16l-2 43-2 1-1-255-1-24-3-4v-2l-4-2-6-4z" fill="#191616"/>
<path transform="translate(822,1067)" d="m0 0h14l7 3 4 5 1 3v9l-4 6-5 3h-19l-1-1v-26z" fill="#212123"/>
<path transform="translate(958,1067)" d="m0 0h13l8 3 4 5 1 2v10l-4 6-6 3h-18l-1-1v-26z" fill="#202022"/>
<path transform="translate(1484,832)" d="m0 0h14l-1 3 4 2 4 5 2 10 2 35v7l2 5 4 1 11-1 22 1h28l4-2 2-10 1-31v-8l3-6h1v55l-3 5-5 2h-68l-5-3-1-1-1-46-1-12-5-6-4-2-11-1z" fill="#191616"/>
<path transform="translate(624,337)" d="m0 0 2 1-4 5-3 3-3 7-2 20v19l3 1 1-5h2l-1 34-1 22-2 9-5-2-2 53h-1v-76l2-36 3-35 3-10 4-6z" fill="#2BC9E2"/>
<path transform="translate(1189,1067)" d="m0 0h13l7 3 4 4 2 9-2 7-5 5-3 1h-19l-1-6v-12l1-10z" fill="#212123"/>
<path transform="translate(304,1060)" d="m0 0h8v56h33l1 6-1 1h-41z" fill="#17E9EC"/>
<path transform="translate(780,883)" d="m0 0 3 3 17 39 4 10v6l-3 2h-42l-3-5 14-34 8-19zm-2 15-7 8-4 9-2 11-2 9 1 3 9 1h18l6-3-1-10-5-12h-2l-1-6-4-7-2-3z" fill="#1A1717"/>
<path transform="translate(1916,1059)" d="m0 0 7 1-1 8-14 47-3 7-2 2h-5l-4-5-3-9v-4l2-1 1-9 1-4 4 14v3h2l2-9 11-36z" fill="#1FDBE0"/>
<path transform="translate(1417,1060)" d="m0 0h7l1 1v27h13l-6 6 26 1v1h-33v26l-3 2-6-1v-62z" fill="#29CBE1"/>
<path transform="translate(1146,636)" d="m0 0h44l71 1 22 1-2 6-8 16-12 28-16-1v-1l11-1 4-5 5-13 6-12 4-13h-25l-65-2-25-1-12-1z" fill="#1A1717"/>
<path transform="translate(1322,640)" d="m0 0h160v2l-10 1-15 1-28 1h-93l-1 2-1-3-9 2-2 6-3 10-1 5h-3l1-7 4-14z" fill="#191617"/>
<path transform="translate(83,1096)" d="m0 0h29l4 4 1 8-3 6-5 2h-25l-1-1z" fill="#1A1718"/>
<path transform="translate(1649,1060)" d="m0 0h6l6 8-2 11-4-4v47l-5 2-4-2v-60z" fill="#1DDDE0"/>
<path transform="translate(1306,690)" d="m0 0 31 1 109 4 123 7 20 2 1 2-21-1-105-6-47-2-84-3-26-2z" fill="#42A6E5"/>
<path transform="translate(1265,1059)" d="m0 0 5 1 1 1v62l-6 1-3-3v-59z" fill="#23D4E0"/>
<path transform="translate(587,305)" d="m0 0h9v1l-6 2-4 2v114l-1 91v14l-1 18h-1v-238z" fill="#191616"/>
<path transform="translate(386,1063)" d="m0 0 2 1 9-1 3 2 5 1v1l-9 2-1 2v43l1 1 14 1v1l-13 1-1 4h18v1l-10 1h-10l-7-2-1-1z" fill="#1BE0DF"/>
<path transform="translate(879,704)" d="m0 0h6l3 3v-2h33l2 3 3 1-1-3 2-1 5 3 6 2h11v3l-31 1h-70v-1l23-1 1-3h2l1-3z" fill="#202022"/>
<path transform="translate(1513,934)" d="m0 0h66l6 3 2 3v56l-2-2-2-6v-35l-1-11-3-3-5-2h-48l-14 2-3 1-1 30v12l-2 12h-1v-55l5-4z" fill="#1C1A1B"/>
<path transform="translate(397,865)" d="m0 0h26l5 4 1 2v125l-1-2h-2l-1-10-1-24 1-46v-30l-1-11-4-4-9-2-14-1z" fill="#1A1818"/>
<path transform="translate(1224,865)" d="m0 0h68v1l-11 2-52 1-5 2-1 6v19l2 3 7 1h31l13 2 5 4-8-1h-47l-5-2-2-3v-31z" fill="#191616"/>
<path transform="translate(1057,865)" d="m0 0h27l5 4 1 2 1 126-2-1-3-10v-81l-1-29-2-6-18-2-1-1-7-1z" fill="#1A1818"/>
<path transform="translate(592,865)" d="m0 0h27l6 5v126l-2-1-2-17v-73l1-2-1-4v-16l-1-10-2-3-7-1-12-1-7-2z" fill="#191616"/>
<path transform="translate(256,1060)" d="m0 0h8v63l-5 1-3-1z" fill="#11F2F0"/>
<path transform="translate(1224,935)" d="m0 0h53v1l-15 2h-27l-9 1-3 1v25l2 4 11 1h46l11 2 1 2h-71l-4-4v-31z" fill="#191717"/>
<path transform="translate(1126,865)" d="m0 0h32v1l-8 1-1 1-21 1h-3l-1 13v89l-1 19-2 7h-1v-126l4-5z" fill="#1A1819"/>
<path transform="translate(603,830)" d="m0 0h69l26 2-1 5-4-1h-105l-6 4-3 1 1-5 4-3 2 1 1-3z" fill="#1A1818"/>
<path transform="translate(86,1067)" d="m0 0h15l6 3 2 4-1 9-4 4-5 1h-15l-1-1v-18z" fill="#1A1717"/>
<path transform="translate(1108,593)" d="m0 0h32l34 1h41 3v2l33-1h46l4 1h116v1l-5 1h-180l-77-2-47-2z" fill="#1B1819"/>
<path transform="translate(115,1092)" d="m0 0 5 1 4 5 1 3v10l-6 9-6 3h-37v-16l2 3 2 5 1 1h27l6-3 2-5v-10z" fill="#15EBED"/>
<path transform="translate(823,1059)" d="m0 0h10l10 2 6 4 6 8 1 3v12l-3 6-5 1-2-1 1-7v-9l-3-6-5-3-4-2-17-1-7 2v-7l2-1z" fill="#17E7EE"/>
<path transform="translate(1074,830)" d="m0 0h73l10 2 2 1v2l2 1h-108l-7 4-2 1 2-5 5-3 9-2z" fill="#1A1818"/>
<path transform="translate(1475,836)" d="m0 0 2 3-2 6-1 151-2-3-1-5-1-18v-50l1-12-1-21 1-4-1-5 1-14v-17l3-7z" fill="#191616"/>
<path transform="translate(1421,350)" d="m0 0 8 1 10 5 7 7 3 7 2 16v42l-1 43v77l-2 3-1-144-1-34-3-9-5-5-9-5-8-3z" fill="#191616"/>
<path transform="translate(1617,846)" d="m0 0 2 1 1 3v130l-1 14-3 6-6 5-4 1 3-3 6-5 1-2z" fill="#1B191A"/>
<path transform="translate(1060,1059)" d="m0 0h10l10 3 6 4 1 4-2 3-5-1-10-4h-10l-10 4-5 6-3 7-1 12h-2l-2-13 7-9 1-5-8 6 2-4 6-7 8-4z" fill="#1FDAE1"/>
<path transform="translate(1179,1060)" d="m0 0h28l9 5 5 7 2 8-1 9-4 7-5-2 1-12-2-8-1-3-9-3-1-1-10-1v-2l-6-1-5 2-1 4h-1v-8z" fill="#17E8ED"/>
<path transform="translate(527,842)" d="m0 0 1 3-1 150h-1l-2-15v-11l-1-9 1-19v-27l-1-30 1-37z" fill="#191616"/>
<path transform="translate(1400,349)" d="m0 0 14 1 12 2 9 4 5 5 5 10v8l-2 1-4-10-4-6-3-2h-9l-2 12v2h-2l-5-13-4-6v-2l-9-2z" fill="#1AE2DF"/>
<path transform="translate(431,830)" d="m0 0h51l14 3 5 3 1 2-7-2-101-1v-2l10-2z" fill="#1A1819"/>
<path transform="translate(910,892)" d="m0 0 4 2 12 17 13 19 12 16 12 17 13 18 7 10-1 2-4-5-4-3v-3h-2l-7-10-10-12-10-15-3-4v-2h-2l-3-5-8-11-7-10-8-12h-4z" fill="#1A1717"/>
<path transform="translate(465,865)" d="m0 0h32v1l-11 2-21 2-3 9v97l-1 17-2 3v-125l4-5z" fill="#1B1919"/>
<path transform="translate(1187,848)" d="m0 0h1v142h-1l-2-20-1-32v-63l1-22h1z" fill="#191616"/>
<path transform="translate(77,1060)" d="m0 0h27l8 4 4 6 1 3v9l-4 1-3-2v-7h-2l-1-4-6-2-19-1-6 12-1-18z" fill="#15EBEE"/>
<path transform="translate(1208,830)" d="m0 0h64l16 1 10 3-1 2h-95l-6 2-1-3 4-3z" fill="#1A1818"/>
<path transform="translate(789,441)" d="m0 0h9l10 1 13 1 34 3 13 1 1 1 14 1 5 2v1h-19l-88-7-1-2z" fill="#191717"/>
<path transform="translate(1660,1069)" d="m0 0h2l14 21 3 8 4 6 3 9 2 3 7 1 1 5-3 2-5-1-7-9-7-11-15-23z" fill="#18E7ED"/>
<path transform="translate(777,500)" d="m0 0h32l75 4 8 1v2l-11 1-43-2h-15l-7-1-32-1-7-3z" fill="#191717"/>
<path transform="translate(1841,1059)" d="m0 0 5 1 7 21 3 10 1 13-1 6-3-1-3-5-12-41 1-3z" fill="#19E5ED"/>
<path transform="translate(1346,933)" d="m0 0h2l5 10 2 6h2l3 5 10 7 9 6 8 4 10 1h2l6 1 16-5 2-3 4-2h9l-3 3-14 7-15 3h-9l-15-3-12-6-10-9-7-9-5-13z" fill="#1A1718"/>
<path transform="translate(1869,1083)" d="m0 0 2 4v6l1 2 3-2-4 16-4 12-3 3-7-1-3-6-3-12 2 1 1 3 2 1v-15l2 3 3 10 3-8z" fill="#1FDAE0"/>
<path transform="translate(776,593)" d="m0 0h18l96 5 4 2-3 1h-37l-8-1-40-2-15-1-10-1-5-2z" fill="#1A1718"/>
<path transform="translate(1014,307)" d="m0 0h35v1l-19 3-13 2h-15l-20 3-9 4-4 2-2 5-2 2 1-5 7-13 8-2z" fill="#1FDBE0"/>
<path transform="translate(748,973)" d="m0 0h66l6 3 11 22v3l-4-2-8-16-5-5-2-1h-59l-8 1-5 4-3 4 1-5 4-6z" fill="#1A1819"/>
<path transform="translate(558,845)" d="m0 0 2 3 1 9v16l1 16v12l-1 17v29l-1 40-1 7h-1l-1-54z" fill="#191616"/>
<path transform="translate(704,846)" d="m0 0h1v9l-4 8-7 3-8 2-26 2-2 18v64l1 8-1 10v17l-1 6h-1v-124l5-4 32-1 6-4 4-8z" fill="#191616"/>
<path transform="translate(398,1067)" d="m0 0h11l11 4 6 5 4 8v14l-3 6-3-1 1-6v-15l-4-6-10-6-6-1-4 1h-4l1 31v10l2 2 12 1-2 2h-14l-2-2v-43z" fill="#1B191A"/>
<path transform="translate(1243,380)" d="m0 0h66l14 1v3l-15 1h-61l-14-2 3-2z" fill="#24D2DF"/>
<path transform="translate(763,1060)" d="m0 0h7v41l-3 8-2 1-2-1z" fill="#19E3DF"/>
<path transform="translate(1189,1067)" d="m0 0h13l7 3 4 4 2 9-2 7-5 5-3 1h-19l-1-6v-12l1-10zm4 2-5 5 1 5-1 3v8l6 5 6-1 7-4 2-3v-9l-4-6-9-3z" fill="#191717"/>
<path transform="translate(817,311)" d="m0 0 2 1-10 7-5 8-2 6v14l4 11 6 8 8 5 7 2 9-1 6-3 2 1-6 4-3 1h-12l-12-4-8-9-5-10-2-13 1-9 5-10 5-5 7-3z" fill="#1A1717"/>
<path transform="translate(822,1067)" d="m0 0h14l7 3 4 5 1 3v9l-4 6-5 3h-19l-1-1v-26zm3 2-4 6v12l3 5 3 1 10-1 5-4 1-2v-9l-3-5-6-3z" fill="#191717"/>
<path transform="translate(779,415)" d="m0 0h12l90 6 4 1v2h-22l-3-1-29-1-18-2h-10l-21-2z" fill="#1A1718"/>
<path transform="translate(626,337)" d="m0 0h4l-2 4-3 3h-2l-2 5-3 6 3 1v26l-1 6h-2l-1 5-3 1-1-2v-19l2-20 5-10 5-5z" fill="#1AE2DF"/>
<path transform="translate(787,401)" d="m0 0h18l12 1 32 2 18 2 25 2 7 3v2h-2v-2l-113-7-3-2z" fill="#1A1818"/>
<path transform="translate(90,1099)" d="m0 0h14l4 1v2h3l1 6-4 4-8 1h-8l-5-2-2-6 2-4z" fill="#212123"/>
<path transform="translate(618,388)" d="m0 0h2l-1 34-3 10-4-1-1-2v-23l1-16 3 3h2z" fill="#23D3DE"/>
<path transform="translate(1916,1059)" d="m0 0 7 1-1 8-9 30h-3l-2-4 1-14z" fill="#19E5ED"/>
<path transform="translate(166,1060)" d="m0 0h7l1 2v36l1 9-3-2-1-11-2 1-2-6-1 14h-1v-42z" fill="#1DDEE0"/>
<path transform="translate(969,1061)" d="m0 0h10l6 4 5 6 2 5v12l-4 8-7 3-2-1 2-4 2-3v-17l-3-5v-2l-5-2-6-3z" fill="#17E8ED"/>
<path transform="translate(1081,299)" d="m0 0 5 1-2 2-10 2-78 5h-19v-1l11-2 22-2 26-1 42-3z" fill="#1A1818"/>
<path transform="translate(958,1067)" d="m0 0h13l8 3 4 5 1 2v10l-4 6-6 3h-18l-1-1v-26zm1 2-2 1v16l2 6 2 2 7 1v-2l7-1 4-4 1-2v-9l-5-6h-2l-1-2z" fill="#191717"/>
<path transform="translate(632,390)" d="m0 0h1v64l-4-1-1-2v-34l3-24z" fill="#24D2DF"/>
<path transform="translate(1400,830)" d="m0 0 12 1 19 5 11 5v2l4 2 8 7v2l-3-1-5-5-16-8-14-4-6-1h-18l-17 3-6 2-4-1 8-4 11-3z" fill="#1A1718"/>
<path transform="translate(1508,1060)" d="m0 0h46l1 1v5h-16l-1-3-7 1-3 2h-21v-5z" fill="#12F0EF"/>
<path transform="translate(1879,1060)" d="m0 0h6l6 18 3 10 1 14-2 4h-3l-2-6-2-14-2-10 1-4-1-6-7-2z" fill="#17E8EE"/>
<path transform="translate(1510,935)" d="m0 0h64v1l-48 1-14 2-3 1-1 30v12l-2 12h-1v-55z" fill="#191616"/>
<path transform="translate(777,631)" d="m0 0h34l74 4 12 1v35h-1v-33h-14l-35-2-46-3-24-1z" fill="#41A6E5"/>
<path transform="translate(1658,1062)" d="m0 0 5 5 5 6 2 6 3 2 1 5 4 2 3 5 3 1 1-25 3-1 1 41-4-4-26-39z" fill="#191616"/>
<path transform="translate(877,848)" d="m0 0h1v146l-2-2-1-7 1-5-1-5v-38l1-14v-69z" fill="#191616"/>
<path transform="translate(615,642)" d="m0 0 2 2 4 10 4 5 9 4h26l28-2h10v1l-13 3-10 1h-11l-5 1-4 1h-18l-9-4-8-5-5-13z" fill="#1A1717"/>
<path transform="translate(640,258)" d="m0 0h13l-1 2-70 10-10 3-3 1 1-3 4-1v-2l16-3 4-1 24-3 4-1 14-1z" fill="#1A1818"/>
<path transform="translate(312,1060)" d="m0 0h1l2 17 1 9v17l-1 8 6 1 15 2 8 1v1h-32z" fill="#191616"/>
<path transform="translate(1067,662)" d="m0 0h2l5 16v3h-106v-1l26-1h63l9-2 1-6-1-7z" fill="#191616"/>
<path transform="translate(1764,1067)" d="m0 0h11l9 4 6 5 4 9v13l-5 10h-2l1-5 1-4v-18h-2l-6-7-10-4h-8l-12 8-2 1 2-4 7-6z" fill="#1A1717"/>
<path transform="translate(825,353)" d="m0 0h9l6 5-2 7-7 3-10-1-3-4v-2l2-1 3-6z" fill="#20D9DE"/>
<path transform="translate(1691,1061)" d="m0 0h5v36l-1 3-3 1-2-1v-38z" fill="#11F3F1"/>
<path transform="translate(256,1060)" d="m0 0h8v63l-5 1 3-2 1-61h-6l1 28 3 1 1 3v14l-4 2v14h-2z" fill="#1FDBDF"/>
<path transform="translate(1761,1058)" d="m0 0h6l-3 2-11 4-9 8-6 12v14l4 10 5 7 10 6-1 2-9-3-6-6-6-13h-1l-1-12 4-9 1-5 2-4 4-5h2v-2z" fill="#1A1818"/>
<path transform="translate(1088,409)" d="m0 0 2 1-16 16-9 13-8 15-5 15-2 1v-6l1-5 6-15 10-16 3-4h2l2-4 3-1v-2l5-3 1-2h2v-2z" fill="#1A1718"/>
<path transform="translate(1425,1060)" d="m0 0h1l2 19 2 4 3 1h13l7-1 3-9 2-9h1v22l-3 1h-31z" fill="#1A1818"/>
<path transform="translate(641,1067)" d="m0 0h12l12 6 6 10 1 5v7l-3 9-1 2h-2l1-18-2-7-2-5-10-5-5-1h-7l-5 3h-2v2l-5 1 2-4z" fill="#1A1718"/>
<path transform="translate(762,282)" d="m0 0 29 2 6 1v1l-15 1-16-1-2 15-1 1-1 76h-1v-95z" fill="#1D1C1D"/>
<path transform="translate(531,1059)" d="m0 0 5 1 9 10 5 7v5l-5 1-6-5-9-13-1-4z" fill="#1BE2EB"/>
<path transform="translate(868,409)" d="m0 0 27 1 3 3v6l-2 3h-15l-30-2v-1h29l-1-2-2-1 6-2h6l3 3v2l2-2-1-5-25-1z" fill="#2DC5E2"/>
<path transform="translate(1119,604)" d="m0 0 8 1 8 5 6 9 4 11-1 4-4-8-6-9v-3l-4-1-3-3h-8l-8 4-5 4-2 3 1-5 4-6 5-4z" fill="#1A1717"/>
<path transform="translate(1050,632)" d="m0 0h15l2 4 4 24 5 19v4l-9 1-67-1v-1h74l-7-26-3-19v-4h-14z" fill="#3DADE4"/>
<path transform="translate(1346,850)" d="m0 0h2l-1 3-8 7-9 10-8 14-4 9-1-4 2-7 4-10 7-8 2-5 3-7 9-1 2 1z" fill="#1A1717"/>
<path transform="translate(774,540)" d="m0 0h1v48l-3-1-2-10v-21l1-11 1-3h2z" fill="#191616"/>
<path transform="translate(1887,1063)" d="m0 0 2 2 3 10 4 7 2 10 6-1 2-3-1 8-4 13h-2l-12-41z" fill="#1A1818"/>
<path transform="translate(773,447)" d="m0 0h2l1 28-1 20-4-4-1-20v-14l1-8z" fill="#191616"/>
<path transform="translate(648,337)" d="m0 0h24l6 3v1l-13 2-16 1h-12v-3l6-3z" fill="#15EBEF"/>
<path transform="translate(1337,1063)" d="m0 0h13l8 3v2l2 1-4 2-7-3h-11l-10 5-5 6-3 8v10l1 5-3-3v-16l3-6 7-9 4-4z" fill="#1EDCDF"/>
<path transform="translate(1849,1066)" d="m0 0 4 5 6 17 1 3 5 3-1 9-2 7-2-2-11-36z" fill="#1A1718"/>
<path transform="translate(1387,422)" d="m0 0 5 1 12 11 7 9 5 11 5 18v9l-2-4-3-13-6-15-7-11-5-5-7-3v-4z" fill="#31BFE3"/>
<path transform="translate(88,1057)" d="m0 0h9l10 2 6 4 4 5 3 8v13l1 3h2l4 9v10l-3 3v-13l-3-6-6-5-1-3 2-5v-9l-3-6-1-3-10-4-22-1v-1z" fill="#1A1717"/>
<path transform="translate(1417,1060)" d="m0 0h7v28l-2-1-2-5-2 12h-1z" fill="#12F1EF"/>
<path transform="translate(762,631)" d="m0 0 2 3v25l1 9-1 7v8l4 5 4 2-9 1-2-1v-58z" fill="#191616"/>
<path transform="translate(1649,1060)" d="m0 0h6l1 4-6 3-1 6v46l-1 3h-2v-60z" fill="#1AE3EA"/>
<path transform="translate(1425,1096)" d="m0 0h33v15h-1l-1-8-1-3h-26l-2 18-2 3z" fill="#191616"/>
<path transform="translate(398,1067)" d="m0 0h11l11 4 6 5 4 8v14l-3 6-3-1 1-6v-15l-4-6-10-6-6-1-4 1-5-1z" fill="#1A1717"/>
<path transform="translate(1467,266)" d="m0 0 10 1 13 2 11 8 4 5-1 4-4-6-7-6-6-3-9-1-29 2h-8v-2l12-2z" fill="#191717"/>
<path transform="translate(611,588)" d="m0 0h1v5h2l5 50 3 10 5 7-4-2-4-5-3-9-3-24-2-25z" fill="#40A8E5"/>
<path transform="translate(778,403)" d="m0 0 36 2 16 1v1h-23l-15-1h-14l-1 5 9 2 29 2 2 2h-11l-27-2-5-5 2-5z" fill="#35B9E3"/>
<path transform="translate(1291,595)" d="m0 0h6l4 1h116v1l-5 1h-127v-2z" fill="#191616"/>
<path transform="translate(1654,1074)" d="m0 0 5 5 20 30-1 2-8-11-7-11-3-1h-3l-1 34h-1l-1-32z" fill="#1A1818"/>
<path transform="translate(624,337)" d="m0 0 2 1-4 5-3 3-3 7-2 20-3 49-2 1v-17l4-49 3-10 4-6z" fill="#31BFE3"/>
<path transform="translate(1314,671)" d="m0 0h3l-2 13 2 3 15 1 3 1 10 1v1h-29l-9-1 6-18z" fill="#1A1717"/>
<path transform="translate(1344,1088)" d="m0 0h11l-1 6 13-1h4l1 4-5 8h-2l2-9h-21l-3-2v-5z" fill="#1BE0DF"/>
<path transform="translate(633,406)" d="m0 0h1v57l-5-1-1 16h-1v-50h1l1 25 4 1z" fill="#34BAE3"/>
<path transform="translate(1460,1061)" d="m0 0h6v27l-4-2-2-2z" fill="#11F3F1"/>
<path transform="translate(626,337)" d="m0 0h4l-2 4-3 3h-2l-2 5-3 6 3 1v11l-1 3h-5v-17l5-10 5-5z" fill="#11F1EF"/>
<path transform="translate(818,312)" d="m0 0 2 1-8 6-4 5-5 10v11l4 12 6 8 5 3 8 3h9l6-1-2 2-7 2-9-1-10-5-7-8-4-9-1-4v-14l4-9 6-8z" fill="#32BDE3"/>
<path transform="translate(1404,317)" d="m0 0h11l4 1v2h-9l-4 1h-16l-41 3h-7l2-2z" fill="#212123"/>
<path transform="translate(1037,709)" d="m0 0h14l6 1-2 2-3 1h-98v-1l83-1z" fill="#212123"/>
<path transform="translate(609,565)" d="m0 0h1l4 55v13h-1l-3-26-1-11-2-10v-13l1-1z" fill="#1A1819"/>
<path transform="translate(1205,1108)" d="m0 0 8 1 8 11-2 4-4 1-10-12-1-4z" fill="#1AE3ED"/>
<path transform="translate(1793,1098)" d="m0 0h1l1 8 4-1-2 5-7 8-10 5-3-1 8-5v-3l-4-1 6-4 5-8z" fill="#21D7E0"/>
<path transform="translate(1395,864)" d="m0 0h12l13 3 11 6 1 2-11-3-7-3-7-2h-9l-22 3v-2l10-3z" fill="#1B1919"/>
<path transform="translate(1872,1073)" d="m0 0h4v2h3l-2 13-4 8-3-3v-13z" fill="#16EAEE"/>
<path transform="translate(576,1059)" d="m0 0 5 2-1 5-9 12-6-1 2-5 3-5 2-5z" fill="#19E5EC"/>
<path transform="translate(1438,1088)" d="m0 0h15l1 2-2 5h-23l5-4z" fill="#11F3F1"/>
<path transform="translate(897,544)" d="m0 0h2l2 16 1 21-1 10-3 3z" fill="#191616"/>
<path transform="translate(971,312)" d="m0 0 2 1-7 13-1 11-1 41-2 1v-30l1-24 5-10z" fill="#31BFE3"/>
<path transform="translate(770,1061)" d="m0 0h1v43l-3 8-5 6-4 3h-2v-2h2l2-5 1-1-4-2 4-9h1v7l4-1 2-7z" fill="#24D2E0"/>
<path transform="translate(254,1064)" d="m0 0h1v57l-2-4-1-11v-38z" fill="#191616"/>
<path transform="translate(1520,1060)" d="m0 0h34l1 1v5h-16l-1-3h-3v-2h-15z" fill="#16E9EB"/>
<path transform="translate(832,310)" d="m0 0 7 1 9 7v2h2l7 14 1 5v8l-3 10-6 9-3 2 2-4 4-6 3-11v-7l-4-13-6-9-8-5-5-2z" fill="#1A1819"/>
<path transform="translate(676,325)" d="m0 0h15l7 2v1l-36 2-11 1h-11v-1l13-1 1-2 19-1z" fill="#1B1919"/>
<path transform="translate(1320,1085)" d="m0 0 2 4 1 6v8h2v2l5 2v2l10 4 7 1-1 2h-9l-10-5-6-9-2-5v-10z" fill="#1A1717"/>
<path transform="translate(1410,319)" d="m0 0h10v2l-8 1h-17l-7 1-24 1-7 1h-15v-1l31-3 27-1h8z" fill="#191616"/>
<path transform="translate(842,451)" d="m0 0h11l39 3 5 1v32h-1l-1-13v-17l-53-5z" fill="#28CEE2"/>
<path transform="translate(1346,1096)" d="m0 0h21l-1 7-4 6-3 3-3-1h2l2-10-8-3-6-1z" fill="#191717"/>
<path transform="translate(874,260)" d="m0 0h21l21 3 3 1-1 3-20-3-24-3z" fill="#1EDEEA"/>
<path transform="translate(860,635)" d="m0 0h25l12 1v35h-1v-33h-14l-22-1z" fill="#3DADE4"/>
<path transform="translate(777,445)" d="m0 0h17v2h11l12 1v1h-38l-1 23h-1z" fill="#2ACAE2"/>
<path transform="translate(844,1109)" d="m0 0 6 4 4 6-1 5h-5l-6-7 1-7z" fill="#18E7ED"/>
<path transform="translate(1252,595)" d="m0 0h23l10 1v2h-53v-1l19-1z" fill="#1C1B1B"/>
<path transform="translate(1176,1064)" d="m0 0h1v56h-1l-1-7-1-44z" fill="#1A1819"/>
<path transform="translate(174,1060)" d="m0 0h1l1 14v32l-2-1-1-7v-36z" fill="#1B191A"/>
<path transform="translate(1465,1102)" d="m0 0h1v19l-4 2-2-1v-16l4-2z" fill="#11F3F1"/>
<path transform="translate(774,635)" d="m0 0h1l1 39h-3l-1-3v-28z" fill="#191616"/>
<path transform="translate(868,409)" d="m0 0 27 1 3 3v6l-2 3h-15v-1l9-1 2-2 2-1-1-5-25-1z" fill="#32BEE3"/>
<path transform="translate(1218,334)" d="m0 0h10l-4 2-33 4-19 1-3-2z" fill="#191616"/>
<path transform="translate(166,1061)" d="m0 0h6v20h-2l-2-4-2-2z" fill="#11F3F1"/>
<path transform="translate(1422,1096)" d="m0 0h2l-1 24-2 2h-4v-14h4v-9z" fill="#11F2F0"/>
<path transform="translate(625,1077)" d="m0 0 2 1-3 8v11l2 8-3-1-4-10v-10l1-3z" fill="#20D9E0"/>
<path transform="translate(1511,1067)" d="m0 0h15v51h-1l-1-45-5-3-7-1z" fill="#191617"/>
<path transform="translate(1291,392)" d="m0 0h18l19 1v1l-12 2-8 1-17-4z" fill="#212123"/>
<path transform="translate(1335,1055)" d="m0 0 5 2h8l4 2-14 1-11 4-6 4-3 4-3-1 5-7 3-2h4v-2l7-2z" fill="#1A1818"/>
<path transform="translate(815,1070)" d="m0 0h3v17l-1 5-2-2-2-5v-14z" fill="#11F3F1"/>
<path transform="translate(764,1061)" d="m0 0h6v23l-2 1-3-3 1-2 1-1 1-8h-3l-1-3z" fill="#11F3F1"/>
<path transform="translate(825,1104)" d="m0 0 7 1 5 5 2 4-6-4-6-2-5 1-2 11h-1v-15z" fill="#1A1717"/>
<path transform="translate(1599,983)" d="m0 0 5 1 2 3v7l-2 2-5-1-1-2v-8z" fill="#20D9DE"/>
<path transform="translate(1190,1104)" d="m0 0h7l8 7-1 2-9-4h-8v12h-1v-16z" fill="#191717"/>
<path transform="translate(640,1063)" d="m0 0h9l5 3 1 2h-14l-8 4h-2v-3h2v-3z" fill="#1EDBDF"/>
<path transform="translate(908,259)" d="m0 0 13 4 9 6 4 5 4 9-1 4-6-12-5-6-10-5-11-2z" fill="#1A1818"/>
<path transform="translate(305,1124)" d="m0 0h37l-1 2-16 1h-13l-7-2z" fill="#191616"/>
<path transform="translate(899,459)" d="m0 0h1l1 25 1 12-2 6h-1l-1-9v-25z" fill="#191616"/>
<path transform="translate(1403,353)" d="m0 0 7 2 6 10 5 15 1 9-2 1-4-17-6-12-5-5z" fill="#33BDE3"/>
<path transform="translate(1081,299)" d="m0 0 5 1-2 2-10 2h-25l1-2 28-2z" fill="#1A1718"/>
<path transform="translate(542,833)" d="m0 0 7 2v2l-7 1-9 3-2 5h-3l1-5 8-7z" fill="#18E6ED"/>
<path transform="translate(1394,694)" d="m0 0h25l13 1 3 2h-18l-23-1z" fill="#3FAAE4"/>
<path transform="translate(1840,1073)" d="m0 0 2 1 9 30-1 4-4-10-1-2 1-2-2-1-2-7z" fill="#1A1818"/>
<path transform="translate(1320,641)" d="m0 0h2l-1 9-7 22-4 10-1-2 6-19z" fill="#41A8E5"/>
<path transform="translate(1387,422)" d="m0 0 5 1 12 11 2 6-7-6-5-3-3-1v-4z" fill="#2EC4E2"/>
<path transform="translate(761,1066)" d="m0 0h1v39l-3 6h-2l2-15 1-3z" fill="#191616"/>
<path transform="translate(1432,695)" d="m0 0h14l18 1v2h-29v-2z" fill="#43A4E5"/>
<path transform="translate(1347,905)" d="m0 0 1 4-1 9 1 14h-3l-1-6v-13l1-7z" fill="#1C1A1B"/>
<path transform="translate(1213,594)" d="m0 0h4l1 2 32-1 1 2h-50v-2z" fill="#191616"/>
<path transform="translate(1414,1079)" d="m0 0h1l1 7-1 30-2-2v-31z" fill="#191616"/>
<path transform="translate(1080,1111)" d="m0 0h6l1 3-5 6-6 2v-5l3-1-1-4z" fill="#20D8E0"/>
<path transform="translate(1421,350)" d="m0 0 8 1 10 5 7 7 2 4-1 6h-1l-3-9-5-5-9-5-8-3z" fill="#1B191A"/>
<path transform="translate(769,1094)" d="m0 0h1v7l-3 8-2 1-2-1v-6l3-7z" fill="#11F2F0"/>
<path transform="translate(1407,865)" d="m0 0 10 1 14 7 1 2-11-3-7-3-7-2z" fill="#1A1718"/>
<path transform="translate(1484,832)" d="m0 0h14l-1 3 4 2 4 5 1 2v8l-2 3-1-12-5-6-4-2-11-1z" fill="#1C1B1B"/>
<path transform="translate(436,1077)" d="m0 0 3 4 3 6-1 10-6 12-1-2 3-7 1-11z" fill="#1B1819"/>
<path transform="translate(958,1067)" d="m0 0h13l2 2-5 1h-11l1 8-2 5h-1v-14z" fill="#1C1A1B"/>
<path transform="translate(700,328)" d="m0 0 8 4 5 4 3 5-1 25h-1l-1-24-3-4v-2l-4-2-6-4z" fill="#1C1B1C"/>
<path transform="translate(1645,1062)" d="m0 0h1v36l-2-2v-12l-1-13v-5z" fill="#191616"/>
<path transform="translate(206,1083)" d="m0 0h1v23l-2 4-3-1z" fill="#191616"/>
<path transform="translate(1044,1075)" d="m0 0 1 3-3 7-1 12h-2l-2-13z" fill="#26D0E1"/>
<path transform="translate(217,1061)" d="m0 0h1v44l-4 7-1-2 3-11z" fill="#191616"/>
<path transform="translate(1042,1087)" d="m0 0h2v12l2 6h2l3 5 4 3-5-1-6-7-3-6v-11z" fill="#1B191A"/>
<path transform="translate(1338,1067)" d="m0 0h11l6 3-2 1-4-1h-11l-10 5v-3z" fill="#1A1818"/>
<path transform="translate(1464,697)" d="m0 0h16l17 2v1h-18l-15-1z" fill="#3EADE4"/>
<path transform="translate(761,666)" d="m0 0h1v17l4 2 2 3 4 2-9 1-2-1z" fill="#1C1A1B"/>
<path transform="translate(443,985)" d="m0 0 4 1 1 1v7l-5 1-2-2v-6z" fill="#20D9DE"/>
<path transform="translate(1113,681)" d="m0 0h7l3 1 35 1v1h-45z" fill="#191616"/>
<path transform="translate(1369,1092)" d="m0 0 3 2-1 4-4 7h-2l2-9h-21v-1l21-1z" fill="#32BDE3"/>
<path transform="translate(793,535)" d="m0 0 2 1h15l9 2v1h-21l-8-1 3-1z" fill="#1A1717"/>
<path transform="translate(1350,382)" d="m0 0 13 1 16 3 3 2h-9l-12-2-11-3z" fill="#1A1819"/>
<path transform="translate(1747,1082)" d="m0 0 1 4 1 3v8l1 7h-2l-3-7v-10z" fill="#1B191A"/>
<path transform="translate(626,337)" d="m0 0h4l-2 4-3 3h-2l-2 5-4 4-1-2 4-8 5-5z" fill="#12F0ED"/>
<path transform="translate(1060,1067)" d="m0 0h10l4 2v1l-10-1-8 2-6 3-5 6-1-2 6-7z" fill="#1B1919"/>
<path transform="translate(1037,709)" d="m0 0h14l6 1-2 2-3 1h-11v-2h-4z" fill="#202022"/>
<path transform="translate(729,1061)" d="m0 0h1l1 30 1 7v3l-3 1z" fill="#191616"/>
<path transform="translate(959,618)" d="m0 0 4 2 6 7 5 3 12 1-1 2h-10l-9-6-6-5z" fill="#1B191A"/>
<path transform="translate(1404,435)" d="m0 0 5 5 6 11v3l-3-1-7-13z" fill="#32BDE3"/>
<path transform="translate(846,319)" d="m0 0 4 4 5 12 1 5v7l-2 8h-1l1-14-3-10-5-9z" fill="#37B7E4"/>
<path transform="translate(1047,302)" d="m0 0 10 2v1l-14 1h-14l3-2z" fill="#1C1B1C"/>
<path transform="translate(1486,268)" d="m0 0 7 3 9 7 3 4-1 4-4-6-7-6-6-3-6-1v-1z" fill="#1C1A1B"/>
<path transform="translate(554,1105)" d="m0 0h2v16l-3 1-1-9 1-7z" fill="#11F3F1"/>
<path transform="translate(828,1056)" d="m0 0 2 1 12 2 8 5 2 3-12-6-22-2v-1l9-1z" fill="#1B1819"/>
<path transform="translate(826,538)" d="m0 0 20 1 7 1v1h-24l-6-1z" fill="#1A1718"/>
<path transform="translate(770,1061)" d="m0 0h1v43l-1 2h-2l1-5z" fill="#22D6DE"/>
<path transform="translate(770,283)" d="m0 0 21 1 6 1v1l-15 1-8-1v-2z" fill="#1B1919"/>
<path transform="translate(1313,1106)" d="m0 0 5 5 4 5 7 5-4 1-1-2-6-3-5-6z" fill="#1A1717"/>
<path transform="translate(1324,1073)" d="m0 0 3 1-4 5-3 8v10l1 5-3-3v-16l3-6z" fill="#29CAE1"/>
<path transform="translate(617,1107)" d="m0 0h2l6 8 7 5v2l-6-1v-2l-4-2-5-8z" fill="#1A1818"/>
<path transform="translate(1105,986)" d="m0 0 3 1 1 7-2 2-4-1-1-4z" fill="#20D9DE"/>
<path transform="translate(1598,832)" d="m0 0h9l8 6 3 3-1 4-6-8-5-2h-12z" fill="#1B191A"/>
<path transform="translate(1320,1085)" d="m0 0 2 4 1 6v9l-3-4-1-3v-10z" fill="#1B1919"/>
<path transform="translate(1913,1063)" d="m0 0 1 4-6 19-2 1v-5l2-6 3-11z" fill="#1B1819"/>
<path transform="translate(504,839)" d="m0 0 5 5 1 3v8l-5 4 1-4v-10l-2-3z" fill="#1A1819"/>
<path transform="translate(866,540)" d="m0 0 22 2v1h-24l-7-1v-1z" fill="#1A1818"/>
<path transform="translate(1265,1059)" d="m0 0 4 1 1 5-4 2h-3v-7z" fill="#18E7EE"/>
<path transform="translate(548,1074)" d="m0 0h2v2h5l4 4-4 4-7-8z" fill="#1A1718"/>
<path transform="translate(1658,1062)" d="m0 0 5 5 5 6 1 7-4-5-7-10z" fill="#1B1819"/>
<path transform="translate(1081,706)" d="m0 0h7v3l-5 2-10 1-6-1v-1l13-1 2 1z" fill="#212123"/>
<path transform="translate(1491,698)" d="m0 0 24 1v2h-18v-2h-6z" fill="#44A3E5"/>
<path transform="translate(1246,291)" d="m0 0h8v1l-5 1 1 2h-13l-2-1v-2z" fill="#18E6DF"/>
<path transform="translate(1217,1096)" d="m0 0 2 1-2 3h-2v11l-5-5-1-3z" fill="#1B1919"/>
<path transform="translate(1880,1075)" d="m0 0 2 2 2 6-1 4-5-1 1-8z" fill="#1A1819"/>
<path transform="translate(1060,1059)" d="m0 0h10v2l3 1-17 1z" fill="#1AE4ED"/>
<path transform="translate(1771,1058)" d="m0 0h8l12 6 3 3-1 2-9-6-13-4z" fill="#1A1819"/>
<path transform="translate(1320,650)" d="m0 0 3 1-4 14v2h-3l1-7z" fill="#1A1819"/>
<path transform="translate(503,844)" d="m0 0 4 1v10l-1 2h-2l-1-5z" fill="#1AE4EC"/>
<path transform="translate(1761,1058)" d="m0 0h6l-3 2-11 4-5 3-2-3z" fill="#1B1919"/>
<path transform="translate(1403,353)" d="m0 0 7 2 6 10v5l-3-4-6-9z" fill="#34BAE3"/>
<path transform="translate(177,1108)" d="m0 0 5 4 7 2 5-1 3 2-1 1h-11l-7-4z" fill="#1B1819"/>
<path transform="translate(1874,1062)" d="m0 0h1l-1 8-3 7h-2l1-8 2-5h2z" fill="#1A1818"/>
<path transform="translate(704,846)" d="m0 0h1v9l-4 8-5 2-3-1 6-4 4-8z" fill="#1B191A"/>
<path transform="translate(776,405)" d="m0 0 2 1-1 5 9 2v2h-7l-5-5z" fill="#30C0E3"/>
<path transform="translate(1439,359)" d="m0 0 5 5 2 4v17h-1l-1-14-5-10z" fill="#2EC4E2"/>
<path transform="translate(695,329)" d="m0 0 6 1 6 4 5 5 2 3-1 3-8-10-10-5z" fill="#31BFE3"/>
<path transform="translate(615,642)" d="m0 0 2 2 4 10 4 5 3 3-6-2-2-1-5-13z" fill="#1B191A"/>
<path transform="translate(1426,478)" d="m0 0h1v18l-1 6h-1l-1-11z" fill="#212123"/>
<path transform="translate(1077,346)" d="m0 0m-10 1h10v1l-9 2h-13l1-2z" fill="#212123"/>
<path transform="translate(107,1061)" d="m0 0 5 1 5 6 2 4-1 7h-1l-2-9-3-4v-2l-5-2z" fill="#1B1A1A"/>
<path transform="translate(990,845)" d="m0 0h1v23l-2-3-1-11z" fill="#191616"/>
<path transform="translate(1259,290)" d="m0 0h11l6 1v1l-16 2-2-3z" fill="#18E6DF"/>
<path transform="translate(908,259)" d="m0 0 13 4 3 2-1 2-11-4-7-1z" fill="#1B1919"/>
<path transform="translate(1081,1057)" d="m0 0 2 4 3 5-4-2-7-3-7-2v-1l9 1 4 1z" fill="#1B1819"/>
<path transform="translate(1254,331)" d="m0 0 4 2-3 1h-19v-1z" fill="#191616"/>
<path transform="translate(1444,269)" d="m0 0 17 1v1l-20 1v-2z" fill="#1C1A1B"/>
<path transform="translate(874,260)" d="m0 0h14l10 2v1h-11l-13-2z" fill="#11F1EE"/>
<path transform="translate(955,1105)" d="m0 0h17v1l-13 1-1 1-1 7-2-3z" fill="#191617"/>
<path transform="translate(1423,1100)" d="m0 0h1v23l-5 1-2-2 5-2z" fill="#1DDDDF"/>
<path transform="translate(1435,964)" d="m0 0h7l2 3-4 1h-7v-3z" fill="#14ECED"/>
<path transform="translate(673,297)" d="m0 0h12l-2 2-3 1h-10v-2z" fill="#1A1818"/>
<path transform="translate(882,706)" d="m0 0 2 1v5l-2 1-5-2 1-4z" fill="#191616"/>
<path transform="translate(1771,1113)" d="m0 0h6l-1 3h-12l-2-2z" fill="#1B191A"/>
<path transform="translate(776,574)" d="m0 0h1l2 16 3 2h-6z" fill="#41A7E5"/>
<path transform="translate(624,337)" d="m0 0 2 1-4 5-3 3-4 8-1-2 5-10z" fill="#2DC5E2"/>
<path transform="translate(1178,1061)" d="m0 0h9l-5 4h-2l-1 4h-1z" fill="#12F0F0"/>
<path transform="translate(1345,918)" d="m0 0h2l1 14h-3z" fill="#191717"/>
<path transform="translate(1484,832)" d="m0 0h14l-2 4-2-1-11-1z" fill="#1B1819"/>
<path transform="translate(824,312)" d="m0 0h11l2 4-14-2z" fill="#11F2F0"/>
<path transform="translate(430,1088)" d="m0 0h1v14l-3 5h-2l3-9z" fill="#32BDE3"/>
<path transform="translate(539,987)" d="m0 0 6 1v5l-4 2-2-7z" fill="#20D9DE"/>
<path transform="translate(688,661)" d="m0 0h10v1l-13 3-6-2v-1z" fill="#1B191A"/>
<path transform="translate(968,625)" d="m0 0 6 2 4 2 6 1v1h-10l-6-4z" fill="#41A8E5"/>
<path transform="translate(82,1066)" d="m0 0 4 2-2 1-1 18h-1l-1-20z" fill="#21D6DF"/>
<path transform="translate(570,1065)" d="m0 0 1 2-4 7-6 4 2-4z" fill="#25D0E0"/>
<path transform="translate(1046,842)" d="m0 0 1 3-2 9h-2v-9z" fill="#11F3F1"/>
<path transform="translate(1401,713)" d="m0 0h10v3l-17-1v-1z" fill="#212123"/>
<path transform="translate(625,1085)" d="m0 0 1 3v11h-2l-1-2v-11z" fill="#1B191A"/>
<path transform="translate(1042,1087)" d="m0 0h2v8l-1 4h-2v-11z" fill="#1A1717"/>
<path transform="translate(1320,954)" d="m0 0 3 3 4 7-1 3-5-7-2-2z" fill="#1A1818"/>
<path transform="translate(1597,834)" d="m0 0h9l6 3-1 3-6-3v-2h-8z" fill="#1FDBE9"/>
<path transform="translate(641,258)" d="m0 0h12l-1 2-12 1z" fill="#1C1A1A"/>
<path transform="translate(846,1100)" d="m0 0 2 1-1 6 3 5-3-1-4-6v-3z" fill="#1B1819"/>
<path transform="translate(1883,1081)" d="m0 0 3 1 2 8v6l-2-3z" fill="#27CFE1"/>
<path transform="translate(627,1063)" d="m0 0 1 3-5 5-4 2 2-5z" fill="#1B191A"/>
<path transform="translate(1344,926)" d="m0 0h1l3 13v3h-2l-2-5z" fill="#33BBE2"/>
<path transform="translate(609,392)" d="m0 0h1v14h-1v-5h-2v-6z" fill="#1C1A1B"/>
<path transform="translate(1273,288)" d="m0 0h6l-3 3-15-1v-1z" fill="#21D7DE"/>
<path transform="translate(1352,992)" d="m0 0 4 1 11 6-3 1-9-5z" fill="#1B1819"/>
<path transform="translate(666,326)" d="m0 0 5 1-4 2h-12l2-2z" fill="#191616"/>
<path transform="translate(653,299)" d="m0 0h11l-1 2-9 1-4-2z" fill="#1B1919"/>
<path transform="translate(821,288)" d="m0 0h18v1l-8 2-10-2z" fill="#1B1919"/>
<path transform="translate(1016,999)" d="m0 0m-1 1m-1 1m-2 1h2v3l-8 2-3-1z" fill="#212123"/>
<path transform="translate(1400,349)" d="m0 0 14 1v1h-11v2l-3-1z" fill="#39B2E4"/>
<path transform="translate(818,312)" d="m0 0 2 1-8 6-3 3-2-1 4-5z" fill="#34BAE3"/>
</svg>
